# xmcd
#
# Track frame offsets:
#  150
#  13737
#  31357
#  47797
#  65528
#  85376
#  97106
#  114884
#  134318
#  147101
#  161769
#  176612
#
# Disc length: 2595 seconds
#
# Revision: 0
# Processed by: cddbd v1.5PL3 Copyright (c) Steve Scherf et al.
# Submitted via: AltoMP3_Maker 3.0
#
DISCID=a20a210c
DTITLE=Shelley Doty X-tet - Possible Reasons for My Insomnia
DYEAR=1900
DGENRE=
TTITLE0=My Insomnia
TTITLE1=Foolish Prophet
TTITLE2=Fancy Free
TTITLE3=You Are
TTITLE4=Flipside
TTITLE5=First Blush
TTITLE6=Love Eyes
TTITLE7=Teeth
TTITLE8=Something Different
TTITLE9=Lunatic Fringe
TTITLE10=The Bottom Line
TTITLE11=L'Amour Looks Something Like You
EXTD=
EXTT0=
EXTT1=
EXTT2=
EXTT3=
EXTT4=
EXTT5=
EXTT6=
EXTT7=
EXTT8=
EXTT9=
EXTT10=
EXTT11=
PLAYORDER=
